<svg width="332" height="40" viewBox="0 0 332 40" fill="none" xmlns="http://www.w3.org/2000/svg">
<path d="M0.136 39H-0.864V40H0.136V39ZM0.136 0.92V-0.0799999H-0.864V0.92H0.136ZM14.024 0.92L14.9845 0.641603L14.7753 -0.0799999H14.024V0.92ZM20.744 24.104L19.7835 24.3824L20.7645 27.7666L21.7075 24.3716L20.744 24.104ZM27.184 0.92V-0.0799999H26.4239L26.2205 0.652355L27.184 0.92ZM41.352 0.92H42.352V-0.0799999H41.352V0.92ZM41.352 39V40H42.352V39H41.352ZM32.504 39H31.504V40H32.504V39ZM32.504 12.568H33.504V11.568H32.504V12.568ZM31.776 12.568V11.568H31.0148L30.8121 12.3017L31.776 12.568ZM24.72 38.104V39.104H25.4812L25.6839 38.3703L24.72 38.104ZM16.712 38.104L15.7476 38.3684L15.9492 39.104H16.712V38.104ZM9.712 12.568L10.6764 12.3036L10.4748 11.568H9.712V12.568ZM8.984 12.568V11.568H7.984V12.568H8.984ZM8.984 39V40H9.984V39H8.984ZM1.136 39V0.92H-0.864V39H1.136ZM0.136 1.92H14.024V-0.0799999H0.136V1.92ZM13.0635 1.19839L19.7835 24.3824L21.7045 23.8256L14.9845 0.641603L13.0635 1.19839ZM21.7075 24.3716L28.1475 1.18764L26.2205 0.652355L19.7805 23.8364L21.7075 24.3716ZM27.184 1.92H41.352V-0.0799999H27.184V1.92ZM40.352 0.92V39H42.352V0.92H40.352ZM41.352 38H32.504V40H41.352V38ZM33.504 39V12.568H31.504V39H33.504ZM32.504 11.568H31.776V13.568H32.504V11.568ZM30.8121 12.3017L23.7561 37.8377L25.6839 38.3703L32.7399 12.8343L30.8121 12.3017ZM24.72 37.104H16.712V39.104H24.72V37.104ZM17.6764 37.8396L10.6764 12.3036L8.74758 12.8324L15.7476 38.3684L17.6764 37.8396ZM9.712 11.568H8.984V13.568H9.712V11.568ZM7.984 12.568V39H9.984V12.568H7.984ZM8.984 38H0.136V40H8.984V38ZM58.6367 39H57.6367V40H58.6367V39ZM58.6367 25.056H59.6367V24.8303L59.5398 24.6265L58.6367 25.056ZM47.1567 0.92V-0.0799999H45.5738L46.2537 1.34953L47.1567 0.92ZM56.6768 0.92L57.5895 0.511555L57.3248 -0.0799999H56.6768V0.92ZM63.1168 15.312L62.204 15.7204L63.1128 17.7515L64.0282 15.7234L63.1168 15.312ZM69.6127 0.92V-0.0799999H68.967L68.7013 0.508602L69.6127 0.92ZM79.1328 0.92L80.0334 1.35463L80.7257 -0.0799999H79.1328V0.92ZM67.4847 25.056L66.5841 24.6214L66.4847 24.8273V25.056H67.4847ZM67.4847 39V40H68.4847V39H67.4847ZM59.6367 39V25.056H57.6367V39H59.6367ZM59.5398 24.6265L48.0598 0.490473L46.2537 1.34953L57.7337 25.4855L59.5398 24.6265ZM47.1567 1.92H56.6768V-0.0799999H47.1567V1.92ZM55.764 1.32844L62.204 15.7204L64.0295 14.9036L57.5895 0.511555L55.764 1.32844ZM64.0282 15.7234L70.5242 1.3314L68.7013 0.508602L62.2053 14.9006L64.0282 15.7234ZM69.6127 1.92H79.1328V-0.0799999H69.6127V1.92ZM78.2321 0.485367L66.5841 24.6214L68.3854 25.4906L80.0334 1.35463L78.2321 0.485367ZM66.4847 25.056V39H68.4847V25.056H66.4847ZM67.4847 38H58.6367V40H67.4847V38ZM99.8094 39H98.8094V40H99.8094V39ZM99.8094 0.92V-0.0799999H98.8094V0.92H99.8094ZM122.489 2.208L122.121 3.13759L122.126 3.13971L122.489 2.208ZM127.417 6.464L126.54 6.94401L126.546 6.95393L126.551 6.96372L127.417 6.464ZM127.417 22.704L126.536 22.2318L126.533 22.2376L127.417 22.704ZM122.489 27.184L122.099 26.2632L122.094 26.2657L122.489 27.184ZM108.657 28.584V27.584H107.657V28.584H108.657ZM108.657 39V40H109.657V39H108.657ZM108.657 21.416H107.657V22.416H108.657V21.416ZM118.625 19.736L117.859 19.0934L117.857 19.0958L118.625 19.736ZM118.681 9.544L117.961 10.2371L118.681 9.544ZM108.657 8.088V7.088H107.657V8.088H108.657ZM100.809 39V0.92H98.8094V39H100.809ZM99.8094 1.92H114.257V-0.0799999H99.8094V1.92ZM114.257 1.92C117.503 1.92 120.111 2.34075 122.121 3.13758L122.858 1.27842C120.537 0.357912 117.657 -0.0799999 114.257 -0.0799999V1.92ZM122.126 3.13971C124.121 3.91741 125.576 5.18221 126.54 6.94401L128.295 5.98399C127.093 3.78846 125.263 2.21592 122.853 1.27629L122.126 3.13971ZM126.551 6.96372C127.549 8.69295 128.097 11.183 128.097 14.528H130.097C130.097 11.0036 129.526 8.11771 128.284 5.96428L126.551 6.96372ZM128.097 14.528C128.097 17.7878 127.553 20.3342 126.536 22.2318L128.299 23.1762C129.522 20.8924 130.097 17.9882 130.097 14.528H128.097ZM126.533 22.2376C125.561 24.0803 124.097 25.4169 122.099 26.2632L122.88 28.1048C125.287 27.0845 127.108 25.4343 128.302 23.1704L126.533 22.2376ZM122.094 26.2657C120.093 27.1279 117.496 27.584 114.257 27.584V29.584C117.665 29.584 120.555 29.1068 122.885 28.1023L122.094 26.2657ZM114.257 27.584H108.657V29.584H114.257V27.584ZM107.657 28.584V39H109.657V28.584H107.657ZM108.657 38H99.8094V40H108.657V38ZM108.657 22.416H113.977V20.416H108.657V22.416ZM113.977 22.416C116.292 22.416 118.193 21.8171 119.394 20.3762L117.857 19.0958C117.191 19.8949 115.993 20.416 113.977 20.416V22.416ZM119.392 20.3786C120.576 18.967 121.081 16.9581 121.081 14.528H119.081C119.081 16.7272 118.617 18.1903 117.859 19.0934L119.392 20.3786ZM121.081 14.528C121.081 12.0952 120.608 10.1053 119.402 8.85089L117.961 10.2371C118.621 10.924 119.081 12.2568 119.081 14.528H121.081ZM119.402 8.85089C118.19 7.59027 116.286 7.088 113.977 7.088V9.088C116.074 9.088 117.306 9.55639 117.961 10.2371L119.402 8.85089ZM113.977 7.088H108.657V9.088H113.977V7.088ZM107.657 8.088V21.416H109.657V8.088H107.657ZM133.665 39L132.694 38.7602L132.388 40H133.665V39ZM143.073 0.92V-0.0799999H142.29L142.102 0.680153L143.073 0.92ZM157.857 0.92L158.827 0.678808L158.639 -0.0799999H157.857V0.92ZM167.321 39V40H168.6L168.291 38.7588L167.321 39ZM158.417 39L157.452 39.2625L157.653 40H158.417V39ZM156.513 32L157.478 31.7375L157.277 31H156.513V32ZM144.193 32V31H143.417L143.224 31.752L144.193 32ZM142.401 39V40H143.177L143.37 39.248L142.401 39ZM145.481 25L144.506 24.7756L144.225 26H145.481V25ZM155.393 25V26H156.645L156.368 24.7787L155.393 25ZM151.529 7.976L152.504 7.75466L152.327 6.976H151.529V7.976ZM149.401 7.976V6.976H148.605L148.426 7.75161L149.401 7.976ZM134.636 39.2398L144.044 1.15985L142.102 0.680153L132.694 38.7602L134.636 39.2398ZM143.073 1.92H157.857V-0.0799999H143.073V1.92ZM156.886 1.16119L166.35 39.2412L168.291 38.7588L158.827 0.678808L156.886 1.16119ZM167.321 38H158.417V40H167.321V38ZM159.382 38.7375L157.478 31.7375L155.548 32.2625L157.452 39.2625L159.382 38.7375ZM156.513 31H144.193V33H156.513V31ZM143.224 31.752L141.432 38.752L143.37 39.248L145.162 32.248L143.224 31.752ZM142.401 38H133.665V40H142.401V38ZM145.481 26H155.393V24H145.481V26ZM156.368 24.7787L152.504 7.75466L150.554 8.19734L154.418 25.2213L156.368 24.7787ZM151.529 6.976H149.401V8.976H151.529V6.976ZM148.426 7.75161L144.506 24.7756L146.455 25.2244L150.375 8.20039L148.426 7.75161ZM181.778 39.392L181.672 40.3864L181.778 39.392ZM176.738 38.72L176.899 37.733L176.738 38.72ZM172.65 37.992L171.653 37.919L171.588 38.7995L172.454 38.9726L172.65 37.992ZM173.154 31.104L173.282 30.1122L172.234 29.977L172.157 31.031L173.154 31.104ZM177.242 31.608L177.124 32.601L177.136 32.6024L177.147 32.6035L177.242 31.608ZM181.946 32.056L181.851 33.0515L181.863 33.0526L181.875 33.0535L181.946 32.056ZM190.178 31.16L190.815 31.931L190.178 31.16ZM190.906 25.896L190.084 26.4652L190.098 26.4858L190.113 26.5057L190.906 25.896ZM189.002 24.72L188.651 25.6563L188.674 25.6649L188.697 25.6724L189.002 24.72ZM185.082 23.768L184.904 24.7521L184.911 24.7532L185.082 23.768ZM177.634 21.696L177.216 22.6045L177.224 22.608L177.231 22.6113L177.634 21.696ZM173.602 18.112L172.721 18.5848L173.602 18.112ZM173.994 4.896L173.157 4.34973L173.152 4.35618L173.148 4.3627L173.994 4.896ZM178.754 1.256L179.081 2.20119L178.754 1.256ZM190.458 0.416L190.368 1.41189L190.458 0.416ZM195.274 0.92L195.156 1.91299L195.274 0.92ZM199.362 1.536L200.361 1.59191L200.409 0.720135L199.552 0.554218L199.362 1.536ZM198.97 8.536L198.838 9.52723L199.908 9.66993L199.969 8.59191L198.97 8.536ZM195.05 8.144L194.951 9.13904L194.963 9.14027L194.975 9.1412L195.05 8.144ZM190.57 7.808L190.493 8.80505L190.507 8.80608L190.52 8.80675L190.57 7.808ZM182.562 8.48L182.032 7.632L182.024 7.63712L182.016 7.64239L182.562 8.48ZM181.834 13.352L181.02 13.9332L181.044 13.9666L181.071 13.9979L181.834 13.352ZM183.85 14.584L183.511 15.525L183.523 15.529L183.85 14.584ZM187.882 15.648L188.102 14.6725L188.095 14.6708L187.882 15.648ZM193.706 17.272L193.37 18.2138L193.377 18.2162L193.706 17.272ZM197.57 19.344L196.924 20.1074L196.94 20.1207L196.956 20.1334L197.57 19.344ZM199.698 22.424L198.747 22.7318L198.751 22.7444L198.755 22.7568L199.698 22.424ZM198.746 34.464L197.886 33.9547L197.882 33.9612L197.878 33.9679L198.746 34.464ZM194.098 38.44L193.727 37.5115L193.721 37.5139L194.098 38.44ZM186.706 38.672C185.216 38.672 183.609 38.5811 181.884 38.3976L181.672 40.3864C183.457 40.5762 185.135 40.672 186.706 40.672V38.672ZM181.884 38.3976C180.146 38.2127 178.484 37.9911 176.899 37.733L176.577 39.707C178.202 39.9715 179.901 40.1979 181.672 40.3864L181.884 38.3976ZM176.899 37.733C175.301 37.4729 173.951 37.2323 172.846 37.0114L172.454 38.9726C173.59 39.1997 174.965 39.4445 176.577 39.707L176.899 37.733ZM173.647 38.065L174.151 31.177L172.157 31.031L171.653 37.919L173.647 38.065ZM173.026 32.0958C174.188 32.2456 175.554 32.4141 177.124 32.601L177.36 30.615C175.795 30.4286 174.435 30.261 173.282 30.1122L173.026 32.0958ZM177.147 32.6035C178.715 32.7528 180.283 32.9022 181.851 33.0515L182.041 31.0605C180.473 30.9112 178.905 30.7618 177.337 30.6125L177.147 32.6035ZM181.875 33.0535C183.459 33.1666 184.846 33.224 186.034 33.224V31.224C184.907 31.224 183.569 31.1694 182.017 31.0585L181.875 33.0535ZM186.034 33.224C188.02 33.224 189.688 32.8619 190.815 31.931L189.541 30.389C188.951 30.8768 187.856 31.224 186.034 31.224V33.224ZM190.815 31.931C191.976 30.9721 192.466 29.5395 192.466 27.856H190.466C190.466 29.1592 190.098 29.9292 189.541 30.389L190.815 31.931ZM192.466 27.856C192.466 26.889 192.246 25.9977 191.699 25.2863L190.113 26.5057C190.313 26.765 190.466 27.1804 190.466 27.856H192.466ZM191.728 25.3268C191.208 24.5749 190.323 24.0929 189.307 23.7676L188.697 25.6724C189.547 25.9445 189.932 26.2465 190.084 26.4652L191.728 25.3268ZM189.353 23.7837C188.37 23.4149 186.991 23.085 185.253 22.7828L184.911 24.7532C186.608 25.0484 187.842 25.3531 188.651 25.6563L189.353 23.7837ZM185.26 22.7839C182.202 22.2312 179.804 21.5581 178.037 20.7807L177.231 22.6113C179.198 23.4766 181.765 24.1848 184.904 24.7521L185.26 22.7839ZM178.052 20.7875C176.346 20.0026 175.184 18.9447 174.483 17.6392L172.721 18.5848C173.663 20.3406 175.189 21.6721 177.216 22.6045L178.052 20.7875ZM174.483 17.6392C173.767 16.3038 173.37 14.4682 173.37 12.064H171.37C171.37 14.6625 171.795 16.8589 172.721 18.5848L174.483 17.6392ZM173.37 12.064C173.37 9.10213 173.897 6.92533 174.84 5.4293L173.148 4.3627C171.926 6.30134 171.37 8.90319 171.37 12.064H173.37ZM174.832 5.44227C175.823 3.92251 177.224 2.84262 179.081 2.20119L178.428 0.310808C176.178 1.08804 174.405 2.43482 173.157 4.34973L174.832 5.44227ZM179.081 2.20119C181.004 1.5369 183.315 1.192 186.034 1.192V-0.808001C183.153 -0.808001 180.611 -0.443571 178.428 0.310808L179.081 2.20119ZM186.034 1.192C187.304 1.192 188.748 1.26462 190.368 1.41189L190.549 -0.579893C188.883 -0.731291 187.378 -0.808001 186.034 -0.808001V1.192ZM190.368 1.41189C192.001 1.56042 193.598 1.72746 195.156 1.91299L195.392 -0.0729885C193.815 -0.260801 192.2 -0.42976 190.549 -0.579893L190.368 1.41189ZM195.156 1.91299C196.707 2.09768 198.045 2.29963 199.172 2.51778L199.552 0.554218C198.365 0.324373 196.977 0.11565 195.392 -0.0729885L195.156 1.91299ZM198.364 1.48009L197.972 8.48009L199.969 8.59191L200.361 1.59191L198.364 1.48009ZM199.102 7.54477C197.958 7.39223 196.632 7.25981 195.125 7.1468L194.975 9.1412C196.455 9.25219 197.742 9.3811 198.838 9.52723L199.102 7.54477ZM195.15 7.14896C193.64 6.99799 192.13 6.88474 190.62 6.80925L190.52 8.80675C191.997 8.88059 193.474 8.99135 194.951 9.13904L195.15 7.14896ZM190.647 6.81094C189.173 6.69761 187.877 6.64 186.762 6.64V8.64C187.812 8.64 189.055 8.69439 190.493 8.80505L190.647 6.81094ZM186.762 6.64C184.8 6.64 183.17 6.92112 182.032 7.632L183.092 9.328C183.747 8.91888 184.916 8.64 186.762 8.64V6.64ZM182.016 7.64239C180.814 8.42618 180.274 9.6767 180.274 11.168H182.274C182.274 10.1953 182.593 9.65381 183.108 9.31761L182.016 7.64239ZM180.274 11.168C180.274 12.2194 180.482 13.1799 181.02 13.9332L182.648 12.7708C182.439 12.4788 182.274 11.9833 182.274 11.168H180.274ZM181.071 13.9979C181.641 14.672 182.497 15.1598 183.511 15.5249L184.189 13.6431C183.336 13.3362 182.848 13.0027 182.598 12.7061L181.071 13.9979ZM183.523 15.529C184.548 15.8839 185.937 16.2484 187.67 16.6252L188.095 14.6708C186.393 14.3009 185.093 13.9561 184.177 13.639L183.523 15.529ZM187.662 16.6234C189.952 17.1406 191.852 17.6717 193.37 18.2137L194.042 16.3303C192.424 15.7523 190.441 15.2007 188.102 14.6726L187.662 16.6234ZM193.377 18.2162C194.903 18.7486 196.073 19.3869 196.924 20.1074L198.216 18.5806C197.126 17.6584 195.72 16.9154 194.035 16.3278L193.377 18.2162ZM196.956 20.1334C197.799 20.7886 198.395 21.6442 198.747 22.7318L200.65 22.1162C200.18 20.6652 199.358 19.4674 198.184 18.5546L196.956 20.1334ZM198.755 22.7568C199.153 23.8833 199.37 25.3663 199.37 27.24H201.37C201.37 25.231 201.14 23.5034 200.641 22.0912L198.755 22.7568ZM199.37 27.24C199.37 30.1165 198.847 32.3297 197.886 33.9547L199.607 34.9733C200.81 32.9396 201.37 30.3368 201.37 27.24H199.37ZM197.878 33.9679C196.95 35.5909 195.582 36.7696 193.727 37.5115L194.47 39.3685C196.721 38.4678 198.451 36.9958 199.614 34.9601L197.878 33.9679ZM193.721 37.5139C191.858 38.273 189.53 38.672 186.706 38.672V40.672C189.706 40.672 192.307 40.2497 194.475 39.3661L193.721 37.5139ZM215.914 39.392L215.808 40.3864L215.914 39.392ZM210.874 38.72L211.035 37.733L210.874 38.72ZM206.786 37.992L205.789 37.919L205.724 38.7995L206.59 38.9726L206.786 37.992ZM207.29 31.104L207.418 30.1122L206.37 29.977L206.293 31.031L207.29 31.104ZM211.378 31.608L211.26 32.601L211.272 32.6024L211.283 32.6035L211.378 31.608ZM216.082 32.056L215.987 33.0515L215.999 33.0526L216.011 33.0535L216.082 32.056ZM224.314 31.16L224.951 31.931L224.314 31.16ZM225.042 25.896L224.22 26.4652L224.234 26.4858L224.249 26.5057L225.042 25.896ZM223.138 24.72L222.787 25.6563L222.81 25.6649L222.833 25.6724L223.138 24.72ZM219.218 23.768L219.04 24.7521L219.047 24.7532L219.218 23.768ZM211.77 21.696L211.352 22.6045L211.36 22.608L211.367 22.6113L211.77 21.696ZM207.738 18.112L206.857 18.5848L207.738 18.112ZM208.13 4.896L207.292 4.34973L207.288 4.35618L207.284 4.3627L208.13 4.896ZM212.89 1.256L213.217 2.20119L212.89 1.256ZM224.594 0.416L224.504 1.41189L224.594 0.416ZM229.41 0.92L229.292 1.91299L229.41 0.92ZM233.498 1.536L234.497 1.59191L234.545 0.720135L233.688 0.554218L233.498 1.536ZM233.106 8.536L232.974 9.52723L234.044 9.66993L234.105 8.59191L233.106 8.536ZM229.186 8.144L229.087 9.13904L229.099 9.14027L229.111 9.1412L229.186 8.144ZM224.706 7.808L224.629 8.80505L224.643 8.80608L224.656 8.80675L224.706 7.808ZM216.698 8.48L216.168 7.632L216.16 7.63712L216.152 7.64239L216.698 8.48ZM215.97 13.352L215.156 13.9332L215.18 13.9666L215.207 13.9979L215.97 13.352ZM217.986 14.584L217.647 15.525L217.659 15.529L217.986 14.584ZM222.018 15.648L222.238 14.6725L222.23 14.6708L222.018 15.648ZM227.842 17.272L227.506 18.2138L227.513 18.2162L227.842 17.272ZM231.706 19.344L231.06 20.1074L231.076 20.1207L231.092 20.1334L231.706 19.344ZM233.834 22.424L232.883 22.7318L232.887 22.7444L232.891 22.7568L233.834 22.424ZM232.882 34.464L232.021 33.9547L232.018 33.9612L232.014 33.9679L232.882 34.464ZM228.234 38.44L227.863 37.5115L227.857 37.5139L228.234 38.44ZM220.842 38.672C219.352 38.672 217.745 38.5811 216.02 38.3976L215.808 40.3864C217.593 40.5762 219.271 40.672 220.842 40.672V38.672ZM216.02 38.3976C214.282 38.2127 212.62 37.9911 211.035 37.733L210.713 39.707C212.338 39.9715 214.037 40.1979 215.808 40.3864L216.02 38.3976ZM211.035 37.733C209.437 37.4729 208.087 37.2323 206.982 37.0114L206.59 38.9726C207.725 39.1997 209.101 39.4445 210.713 39.707L211.035 37.733ZM207.783 38.065L208.287 31.177L206.293 31.031L205.789 37.919L207.783 38.065ZM207.162 32.0958C208.324 32.2456 209.69 32.4141 211.26 32.601L211.496 30.615C209.93 30.4286 208.571 30.261 207.418 30.1122L207.162 32.0958ZM211.283 32.6035C212.851 32.7528 214.419 32.9022 215.987 33.0515L216.177 31.0605C214.609 30.9112 213.041 30.7618 211.473 30.6125L211.283 32.6035ZM216.011 33.0535C217.595 33.1666 218.982 33.224 220.17 33.224V31.224C219.043 31.224 217.705 31.1694 216.153 31.0585L216.011 33.0535ZM220.17 33.224C222.156 33.224 223.824 32.8619 224.951 31.931L223.677 30.389C223.087 30.8768 221.992 31.224 220.17 31.224V33.224ZM224.951 31.931C226.112 30.9721 226.602 29.5395 226.602 27.856H224.602C224.602 29.1592 224.234 29.9292 223.677 30.389L224.951 31.931ZM226.602 27.856C226.602 26.889 226.382 25.9977 225.835 25.2863L224.249 26.5057C224.449 26.765 224.602 27.1804 224.602 27.856H226.602ZM225.864 25.3268C225.344 24.5749 224.459 24.0929 223.443 23.7676L222.833 25.6724C223.683 25.9445 224.068 26.2465 224.22 26.4652L225.864 25.3268ZM223.489 23.7837C222.506 23.4149 221.127 23.085 219.389 22.7828L219.047 24.7532C220.744 25.0484 221.978 25.3531 222.787 25.6563L223.489 23.7837ZM219.396 22.7839C216.338 22.2312 213.94 21.5581 212.173 20.7807L211.367 22.6113C213.334 23.4766 215.901 24.1848 219.04 24.7521L219.396 22.7839ZM212.188 20.7875C210.482 20.0026 209.32 18.9447 208.619 17.6392L206.857 18.5848C207.799 20.3406 209.325 21.6721 211.352 22.6045L212.188 20.7875ZM208.619 17.6392C207.903 16.3038 207.506 14.4682 207.506 12.064H205.506C205.506 14.6625 205.931 16.8589 206.857 18.5848L208.619 17.6392ZM207.506 12.064C207.506 9.10213 208.033 6.92533 208.976 5.4293L207.284 4.3627C206.062 6.30134 205.506 8.90319 205.506 12.064H207.506ZM208.968 5.44227C209.959 3.92251 211.36 2.84262 213.217 2.20119L212.564 0.310808C210.314 1.08804 208.541 2.43482 207.292 4.34973L208.968 5.44227ZM213.217 2.20119C215.14 1.5369 217.451 1.192 220.17 1.192V-0.808001C217.289 -0.808001 214.747 -0.443571 212.564 0.310808L213.217 2.20119ZM220.17 1.192C221.44 1.192 222.884 1.26462 224.504 1.41189L224.685 -0.579893C223.019 -0.731291 221.514 -0.808001 220.17 -0.808001V1.192ZM224.504 1.41189C226.137 1.56042 227.733 1.72746 229.292 1.91299L229.528 -0.0729885C227.951 -0.260801 226.336 -0.42976 224.685 -0.579893L224.504 1.41189ZM229.292 1.91299C230.843 2.09768 232.181 2.29963 233.308 2.51778L233.688 0.554218C232.501 0.324373 231.113 0.11565 229.528 -0.0729885L229.292 1.91299ZM232.5 1.48009L232.108 8.48009L234.105 8.59191L234.497 1.59191L232.5 1.48009ZM233.238 7.54477C232.094 7.39223 230.768 7.25981 229.261 7.1468L229.111 9.1412C230.591 9.25219 231.878 9.3811 232.974 9.52723L233.238 7.54477ZM229.286 7.14896C227.776 6.99799 226.266 6.88474 224.756 6.80925L224.656 8.80675C226.133 8.88059 227.61 8.99135 229.087 9.13904L229.286 7.14896ZM224.783 6.81094C223.309 6.69761 222.013 6.64 220.898 6.64V8.64C221.948 8.64 223.191 8.69439 224.629 8.80505L224.783 6.81094ZM220.898 6.64C218.936 6.64 217.305 6.92112 216.168 7.632L217.228 9.328C217.883 8.91888 219.052 8.64 220.898 8.64V6.64ZM216.152 7.64239C214.95 8.42618 214.41 9.6767 214.41 11.168H216.41C216.41 10.1953 216.729 9.65381 217.244 9.31761L216.152 7.64239ZM214.41 11.168C214.41 12.2194 214.618 13.1799 215.156 13.9332L216.784 12.7708C216.575 12.4788 216.41 11.9833 216.41 11.168H214.41ZM215.207 13.9979C215.777 14.672 216.633 15.1598 217.647 15.5249L218.325 13.6431C217.472 13.3362 216.984 13.0027 216.733 12.7061L215.207 13.9979ZM217.659 15.529C218.684 15.8839 220.073 16.2484 221.806 16.6252L222.23 14.6708C220.529 14.3009 219.229 13.9561 218.313 13.639L217.659 15.529ZM221.798 16.6234C224.088 17.1406 225.988 17.6717 227.506 18.2137L228.178 16.3303C226.56 15.7523 224.577 15.2007 222.238 14.6726L221.798 16.6234ZM227.513 18.2162C229.039 18.7486 230.209 19.3869 231.06 20.1074L232.352 18.5806C231.262 17.6584 229.856 16.9154 228.171 16.3278L227.513 18.2162ZM231.092 20.1334C231.935 20.7886 232.531 21.6442 232.883 22.7318L234.786 22.1162C234.316 20.6652 233.494 19.4674 232.32 18.5546L231.092 20.1334ZM232.891 22.7568C233.289 23.8833 233.506 25.3663 233.506 27.24H235.506C235.506 25.231 235.275 23.5034 234.777 22.0912L232.891 22.7568ZM233.506 27.24C233.506 30.1165 232.983 32.3297 232.021 33.9547L233.743 34.9733C234.946 32.9396 235.506 30.3368 235.506 27.24H233.506ZM232.014 33.9679C231.086 35.5909 229.718 36.7696 227.863 37.5115L228.605 39.3685C230.857 38.4678 232.587 36.9958 233.75 34.9601L232.014 33.9679ZM227.857 37.5139C225.994 38.273 223.666 38.672 220.842 38.672V40.672C223.842 40.672 226.443 40.2497 228.611 39.3661L227.857 37.5139ZM241.986 39H240.986V40H241.986V39ZM241.986 0.92V-0.0799999H240.986V0.92H241.986ZM250.834 0.92H251.834V-0.0799999H250.834V0.92ZM250.834 39V40H251.834V39H250.834ZM242.986 39V0.92H240.986V39H242.986ZM241.986 1.92H250.834V-0.0799999H241.986V1.92ZM249.834 0.92V39H251.834V0.92H249.834ZM250.834 38H241.986V40H250.834V38ZM265.701 37.544L265.196 38.4073L265.202 38.4106L265.701 37.544ZM260.437 31.048L261.374 30.6995L260.437 31.048ZM260.437 9.04L261.374 9.38849L261.376 9.3846L260.437 9.04ZM265.701 2.432L265.192 1.57105L265.187 1.5745L265.701 2.432ZM285.245 2.432L285.76 1.5745V1.5745L285.245 2.432ZM290.509 9.04L289.57 9.38461L289.572 9.38849L290.509 9.04ZM290.509 31.16L291.445 31.5125L291.446 31.5085L290.509 31.16ZM285.245 37.6L285.746 38.4657L285.75 38.4633L285.245 37.6ZM280.373 30.936L279.736 30.1656L280.373 30.936ZM282.557 13.24L281.577 13.4361L282.557 13.24ZM280.373 9.04L279.706 9.78457L279.713 9.79106L279.72 9.79741L280.373 9.04ZM270.629 9.04L271.282 9.79741L271.284 9.79569L270.629 9.04ZM268.389 13.24L267.412 13.0251L267.411 13.0326L267.409 13.04L268.389 13.24ZM268.389 26.792L267.409 26.992L267.411 27.0015L267.413 27.011L268.389 26.792ZM270.629 30.936L269.976 31.6934L269.984 31.7L269.992 31.7064L270.629 30.936ZM275.501 38.672C271.536 38.672 268.461 37.9789 266.2 36.6774L265.202 38.4106C267.87 39.9464 271.328 40.672 275.501 40.672V38.672ZM266.206 36.6807C264 35.391 262.386 33.4194 261.374 30.6995L259.5 31.3965C260.654 34.5006 262.549 36.8597 265.196 38.4073L266.206 36.6807ZM261.374 30.6995C260.347 27.9351 259.813 24.4041 259.813 20.072H257.813C257.813 24.5506 258.362 28.3369 259.5 31.3965L261.374 30.6995ZM259.813 20.072C259.813 15.7014 260.347 12.1522 261.374 9.38848L259.5 8.69151C258.362 11.7518 257.813 15.5573 257.813 20.072H259.813ZM261.376 9.3846C262.389 6.62457 264.007 4.61493 266.216 3.28949L265.187 1.5745C262.542 3.16106 260.651 5.55676 259.498 8.69539L261.376 9.3846ZM266.21 3.29292C268.468 1.9585 271.539 1.248 275.501 1.248V-0.752003C271.324 -0.752003 267.862 -0.00650787 265.192 1.57107L266.21 3.29292ZM275.501 1.248C279.464 1.248 282.513 1.95894 284.731 3.28949L285.76 1.5745C283.124 -0.00694275 279.677 -0.752003 275.501 -0.752003V1.248ZM284.731 3.28949C286.94 4.61493 288.557 6.62457 289.57 9.3846L291.448 8.69539C290.296 5.55676 288.404 3.16106 285.76 1.5745L284.731 3.28949ZM289.572 9.38849C290.599 12.1522 291.133 15.7014 291.133 20.072H293.133C293.133 15.5573 292.584 11.7518 291.446 8.69151L289.572 9.38849ZM291.133 20.072C291.133 24.4811 290.599 28.0486 289.572 30.8115L291.446 31.5085C292.585 28.4474 293.133 24.6229 293.133 20.072H291.133ZM289.573 30.8075C288.563 33.4888 286.95 35.4448 284.74 36.7367L285.75 38.4633C288.393 36.9179 290.289 34.5805 291.445 31.5125L289.573 30.8075ZM284.745 36.7343C282.564 37.9949 279.512 38.672 275.501 38.672V40.672C279.704 40.672 283.148 39.9678 285.746 38.4657L284.745 36.7343ZM275.501 33.28C277.779 33.28 279.674 32.8125 281.011 31.7064L279.736 30.1656C278.907 30.8515 277.553 31.28 275.501 31.28V33.28ZM281.011 31.7064C282.32 30.6232 283.133 29.0272 283.537 27.048L281.577 26.648C281.235 28.3274 280.592 29.4568 279.736 30.1656L281.011 31.7064ZM283.537 27.048C283.928 25.1311 284.117 22.8006 284.117 20.072H282.117C282.117 22.7194 281.933 24.9063 281.577 26.648L283.537 27.048ZM284.117 20.072C284.117 17.3427 283.928 14.9954 283.538 13.0439L281.577 13.4361C281.933 15.2179 282.117 17.4253 282.117 20.072H284.117ZM283.538 13.0439C283.135 11.0312 282.326 9.40307 281.026 8.28259L279.72 9.79741C280.586 10.5436 281.232 11.7155 281.577 13.4361L283.538 13.0439ZM281.041 8.29543C279.703 7.09584 277.795 6.584 275.501 6.584V8.584C277.538 8.584 278.878 9.04282 279.706 9.78457L281.041 8.29543ZM275.501 6.584C273.236 6.584 271.341 7.09955 269.974 8.28431L271.284 9.79569C272.157 9.03911 273.51 8.584 275.501 8.584V6.584ZM269.976 8.28259C268.682 9.39788 267.854 11.018 267.412 13.0251L269.366 13.4549C269.746 11.7287 270.41 10.5488 271.282 9.79741L269.976 8.28259ZM267.409 13.04C267.018 14.9576 266.829 17.3072 266.829 20.072H268.829C268.829 17.3862 269.014 15.181 269.369 13.44L267.409 13.04ZM266.829 20.072C266.829 22.7643 267.018 25.0758 267.409 26.992L269.369 26.592C269.013 24.8495 268.829 22.681 268.829 20.072H266.829ZM267.413 27.011C267.856 28.9847 268.687 30.5818 269.976 31.6934L271.282 30.1786C270.406 29.4235 269.743 28.2579 269.365 26.573L267.413 27.011ZM269.992 31.7064C271.328 32.8125 273.223 33.28 275.501 33.28V31.28C273.449 31.28 272.095 30.8515 271.267 30.1656L269.992 31.7064ZM300.031 39H299.031V40H300.031V39ZM300.031 0.92V-0.0799999H299.031V0.92H300.031ZM310.671 0.92L311.575 0.491283L311.304 -0.0799999H310.671V0.92ZM322.151 25.112L321.248 25.5407L321.519 26.112H322.151V25.112ZM323.103 25.112V26.112H324.103V25.112H323.103ZM323.103 0.92V-0.0799999H322.103V0.92H323.103ZM331.951 0.92H332.951V-0.0799999H331.951V0.92ZM331.951 39V40H332.951V39H331.951ZM321.423 39L320.518 39.4241L320.787 40H321.423V39ZM309.831 14.248L310.737 13.8239L310.467 13.248H309.831V14.248ZM308.879 14.248V13.248H307.879V14.248H308.879ZM308.879 39V40H309.879V39H308.879ZM301.031 39V0.92H299.031V39H301.031ZM300.031 1.92H310.671V-0.0799999H300.031V1.92ZM309.768 1.34871L321.248 25.5407L323.055 24.6833L311.575 0.491283L309.768 1.34871ZM322.151 26.112H323.103V24.112H322.151V26.112ZM324.103 25.112V0.92H322.103V25.112H324.103ZM323.103 1.92H331.951V-0.0799999H323.103V1.92ZM330.951 0.92V39H332.951V0.92H330.951ZM331.951 38H321.423V40H331.951V38ZM322.329 38.5759L310.737 13.8239L308.926 14.6721L320.518 39.4241L322.329 38.5759ZM309.831 13.248H308.879V15.248H309.831V13.248ZM307.879 14.248V39H309.879V14.248H307.879ZM308.879 38H300.031V40H308.879V38Z" fill="#575757" fill-opacity="0.3"/>
</svg>
