<svg width="52" height="52" viewBox="0 0 52 52" fill="none" xmlns="http://www.w3.org/2000/svg">
<path d="M41.1667 19.4997L47.6667 25.9997M47.6667 25.9997L41.1667 32.4997M47.6667 25.9997L36.8334 25.9997M10.8334 19.4997L4.33342 25.9997M4.33342 25.9997L10.8334 32.4997M4.33342 25.9997H15.1668M32.5001 41.1663L26.0001 47.6663M26.0001 47.6663L19.5001 41.1663M26.0001 47.6663V36.833M32.5001 10.833L26.0001 4.33301M26.0001 4.33301L19.5001 10.833M26.0001 4.33301L26.0001 15.1663" stroke="#777777" stroke-width="2" stroke-linecap="round" stroke-linejoin="round"/>
<path d="M22.3333 26.3333C22.3333 28.7266 24.2734 30.6667 26.6667 30.6667C29.0599 30.6667 31 28.7266 31 26.3333C31 23.9401 29.0599 22 26.6667 22C24.2734 22 22.3333 23.9401 22.3333 26.3333Z" stroke="#777777" stroke-width="4" stroke-linecap="round" stroke-linejoin="round"/>
</svg>
