<svg width="18" height="19" viewBox="0 0 18 19" fill="none" xmlns="http://www.w3.org/2000/svg">
<path d="M17.031 1.08432C16.934 0.987777 16.8115 0.920932 16.6778 0.891647C16.5441 0.862362 16.4048 0.871856 16.2763 0.919012L0.463847 6.66901C0.327477 6.72074 0.210071 6.81273 0.127221 6.93276C0.0443717 7.05279 0 7.19519 0 7.34104C0 7.48689 0.0443717 7.62929 0.127221 7.74933C0.210071 7.86936 0.327477 7.96135 0.463847 8.01307L6.63791 10.4784L11.1948 5.90714L12.2082 6.92057L7.62978 11.499L10.1023 17.6731C10.1555 17.8068 10.2477 17.9215 10.3669 18.0022C10.4861 18.0829 10.6268 18.126 10.7707 18.1259C10.916 18.1229 11.0569 18.076 11.175 17.9913C11.293 17.9066 11.3826 17.7881 11.432 17.6515L17.182 1.83901C17.2309 1.71185 17.2428 1.57338 17.216 1.43976C17.1893 1.30614 17.1251 1.18287 17.031 1.08432Z" fill="#070707"/>
</svg>
