<svg width="132" height="95" viewBox="0 0 132 95" fill="none" xmlns="http://www.w3.org/2000/svg">
<path opacity="0.2" d="M129.511 50.8491C129.511 76.869 91.814 94.2264 65.7941 94.2264C39.7742 94.2264 2.49219 76.869 2.49219 50.8491C2.49219 24.8292 39.7742 0 65.7941 0C91.814 0 129.511 24.8292 129.511 50.8491Z" fill="url(#paint0_linear_3741_42165)"/>
<path opacity="0.3" d="M132 23.4528C132 44.6585 83.6774 85.0943 62.4717 85.0943C41.266 85.0943 0 44.6585 0 23.4528C0 2.24719 41.266 8.30189 62.4717 8.30189C83.6774 8.30189 132 2.24719 132 23.4528Z" fill="url(#paint1_linear_3741_42165)"/>
<circle opacity="0.7" cx="65.7917" cy="43.3777" r="30.9245" fill="url(#paint2_linear_3741_42165)"/>
<defs>
<linearGradient id="paint0_linear_3741_42165" x1="66.0016" y1="0" x2="66.0016" y2="94.2264" gradientUnits="userSpaceOnUse">
<stop stop-color="#DFE5FB"/>
<stop offset="1" stop-color="#DFD7F4"/>
</linearGradient>
<linearGradient id="paint1_linear_3741_42165" x1="66" y1="7.50195" x2="66" y2="85.0943" gradientUnits="userSpaceOnUse">
<stop stop-color="#DFE5FB"/>
<stop offset="1" stop-color="#DFD7F4"/>
</linearGradient>
<linearGradient id="paint2_linear_3741_42165" x1="65.7917" y1="12.4531" x2="65.7917" y2="74.3022" gradientUnits="userSpaceOnUse">
<stop stop-color="#DFE5FB"/>
<stop offset="1" stop-color="#DFD7F4"/>
</linearGradient>
</defs>
</svg>
