<svg width="48" height="48" viewBox="0 0 48 48" fill="none" xmlns="http://www.w3.org/2000/svg">
<mask id="mask0_5001_8516" style="mask-type:alpha" maskUnits="userSpaceOnUse" x="5" y="2" width="35" height="42">
<path d="M22.0001 14C22.0001 14 19.3001 19.293 18.0001 26C16.7001 32.707 17.0001 42 17.0001 42" stroke="white" stroke-width="0.5" stroke-linecap="round" stroke-linejoin="round"/>
<path d="M33.9531 23.2721C34.2991 23.5021 34.8461 23.6631 35.3811 23.7751C36.3131 23.9691 37.1731 23.3291 37.1491 22.3781C37.1041 20.6041 36.4121 17.7031 32.8911 15.3641C29.5661 13.1571 26.2651 13.1261 24.1831 13.4441C22.9961 13.6241 22.5231 14.9221 23.2051 15.9111C23.8131 16.7941 24.5211 17.6851 25.0001 17.8561C26.0001 18.2111 27.2031 17.2741 28.0801 17.8561C28.9561 18.4371 28.6951 19.7811 29.5721 20.3631C30.4481 20.9451 31.5851 20.1831 32.4621 20.7651C33.3371 21.3471 33.0771 22.6901 33.9531 23.2721ZM20.0001 17.0001C20.8581 16.7141 21.3891 15.7741 21.6861 15.0211C21.9321 14.3991 21.7121 13.7131 21.1361 13.3731C19.8411 12.6071 17.0761 11.5591 12.7621 12.8121C8.49707 14.0501 7.37207 16.8681 7.08507 18.5271C7.05166 18.7082 7.0562 18.8942 7.09843 19.0735C7.14066 19.2527 7.21964 19.4212 7.33038 19.5683C7.44111 19.7154 7.58119 19.838 7.74174 19.9281C7.90229 20.0183 8.07982 20.0741 8.26307 20.0921C8.82307 20.1551 9.43907 20.1271 9.80707 19.8151C10.6141 19.1301 10.8321 18.2331 11.7341 17.9911C12.6351 17.7501 13.4131 18.8491 14.3141 18.6071C15.2161 18.3661 15.3401 17.0251 16.2411 16.7831C17.1431 16.5421 18.5011 17.5001 20.0011 17.0001H20.0001ZM27.0001 6.00012C24.5001 7.00012 22.0001 12.0001 22.0001 14.0001L35.0001 8.00012C33.6201 5.60912 29.5001 5.00012 27.0001 6.00012Z" fill="#555555" stroke="white" stroke-width="4" stroke-linecap="round" stroke-linejoin="round"/>
<path d="M20 5.00009C24 6.42209 23.38 11.6091 22 14.0001L10 5.92209C11 4.00009 16 3.57909 20 5.00009Z" fill="#555555" stroke="white" stroke-width="4" stroke-linecap="round" stroke-linejoin="round"/>
<path d="M26 35C34.284 35 39 36.79 39 39C39 41.21 32.284 43 24 43C15.716 43 9 41.21 9 39C9 38.46 9.4 37.947 10.125 37.477" stroke="#535353" stroke-width="2" stroke-linecap="round"/>
</mask>
<g mask="url(#mask0_5001_8516)">
<path opacity="0.6" d="M8 33H47V46H8V33Z" fill="#535353"/>
</g>
</svg>
