<svg width="50" height="50" viewBox="0 0 50 50" fill="none" xmlns="http://www.w3.org/2000/svg">
<g filter="url(#filter0_bd_3878_43452)">
<rect x="4" width="42" height="42" rx="21" fill="white"/>
<path d="M20.7907 31.1629L23.3672 28.5229C22.4669 28.3274 21.6094 27.9709 20.8358 27.4706L20.7907 31.1629ZM29.2093 10.8375L26.6335 13.4771C27.5338 13.6728 28.3914 14.0294 29.165 14.5298L29.2093 10.8375ZM17.4775 22.6331L14.8371 25.209L18.5294 25.1642C18.0292 24.3908 17.6728 23.5333 17.4775 22.6331ZM32.5225 19.3672L35.1629 16.7907L31.4706 16.8358C31.9708 17.6093 32.3272 18.4669 32.5225 19.3672ZM18.5298 16.8354L14.8375 16.7903L17.4778 19.3669C17.6728 18.4664 18.0292 17.6088 18.5298 16.8354ZM31.4702 25.1646L35.1625 25.2093L32.5222 22.6331C32.3272 23.5335 31.9708 24.3912 31.4702 25.1646ZM23.3672 13.4771L20.7907 10.8371L20.8358 14.5294C21.6094 14.0291 22.4669 13.6726 23.3672 13.4771ZM26.6328 28.5229L29.2093 31.1625L29.1642 27.4706C28.3906 27.9707 27.533 28.3272 26.6328 28.5229ZM18.6757 25.3861L17.2212 28.7781L20.6136 27.3243C19.8574 26.7987 19.2012 26.1423 18.6757 25.3861ZM31.3243 16.6143L32.7781 13.2219L29.3864 14.6757C30.1426 15.2015 30.7988 15.858 31.3243 16.6143ZM17.3 21C17.3 20.5314 17.3488 20.0745 17.4291 19.6283L14 20.9996L17.4291 22.371C17.3453 21.9187 17.3021 21.4599 17.3 21ZM36 21L32.5709 19.6283C32.6512 20.0745 32.7 20.5314 32.7 21C32.7 21.469 32.6512 21.9258 32.5709 22.3717L36 21ZM20.6143 14.6754L17.2219 13.2215L18.6757 16.6139C19.2017 15.8577 19.8581 15.2013 20.6143 14.6754ZM29.3857 27.3243L32.7781 28.7781L31.3243 25.3861C30.7984 26.1422 30.142 26.7986 29.3857 27.3243ZM26.3713 13.4291L25 10L23.6287 13.4291C24.0742 13.3488 24.531 13.3 25 13.3C25.469 13.3 25.9258 13.3488 26.3713 13.4291ZM23.6287 28.5709L25 32L26.3713 28.5709C25.9258 28.6512 25.469 28.7 25 28.7C24.531 28.7 24.0742 28.6512 23.6287 28.5709Z" fill="black"/>
<path d="M25 28C28.866 28 32 24.866 32 21C32 17.134 28.866 14 25 14C21.134 14 18 17.134 18 21C18 24.866 21.134 28 25 28Z" fill="black"/>
</g>
<defs>
<filter id="filter0_bd_3878_43452" x="-96" y="-100" width="242" height="242" filterUnits="userSpaceOnUse" color-interpolation-filters="sRGB">
<feFlood flood-opacity="0" result="BackgroundImageFix"/>
<feGaussianBlur in="BackgroundImageFix" stdDeviation="50"/>
<feComposite in2="SourceAlpha" operator="in" result="effect1_backgroundBlur_3878_43452"/>
<feColorMatrix in="SourceAlpha" type="matrix" values="0 0 0 0 0 0 0 0 0 0 0 0 0 0 0 0 0 0 127 0" result="hardAlpha"/>
<feOffset dy="4"/>
<feGaussianBlur stdDeviation="2"/>
<feComposite in2="hardAlpha" operator="out"/>
<feColorMatrix type="matrix" values="0 0 0 0 0 0 0 0 0 0 0 0 0 0 0 0 0 0 0.25 0"/>
<feBlend mode="normal" in2="effect1_backgroundBlur_3878_43452" result="effect2_dropShadow_3878_43452"/>
<feBlend mode="normal" in="SourceGraphic" in2="effect2_dropShadow_3878_43452" result="shape"/>
</filter>
</defs>
</svg>
