<svg width="50" height="50" viewBox="0 0 50 50" fill="none" xmlns="http://www.w3.org/2000/svg">
<g filter="url(#filter0_bd_3878_43529)">
<rect x="4" y="2" width="42" height="42" rx="21" fill="#070707"/>
<path d="M24.9998 22.807C23.7415 21.5483 22.8846 19.9448 22.5374 18.1993C22.1901 16.4538 22.3681 14.6444 23.0487 13C21.108 13.3821 19.3254 14.3343 17.9288 15.735C14.0238 19.64 14.0238 25.972 17.9288 29.877C21.8348 33.783 28.1658 33.782 32.0718 29.877C33.4721 28.4805 34.4243 26.6983 34.8067 24.758C33.1623 25.4385 31.353 25.6164 29.6075 25.2692C27.862 24.9219 26.2585 24.0651 24.9998 22.807Z" fill="white"/>
<rect x="4.5" y="2.5" width="41" height="41" rx="20.5" stroke="#525252"/>
</g>
<defs>
<filter id="filter0_bd_3878_43529" x="-96" y="-98" width="242" height="242" filterUnits="userSpaceOnUse" color-interpolation-filters="sRGB">
<feFlood flood-opacity="0" result="BackgroundImageFix"/>
<feGaussianBlur in="BackgroundImageFix" stdDeviation="50"/>
<feComposite in2="SourceAlpha" operator="in" result="effect1_backgroundBlur_3878_43529"/>
<feColorMatrix in="SourceAlpha" type="matrix" values="0 0 0 0 0 0 0 0 0 0 0 0 0 0 0 0 0 0 127 0" result="hardAlpha"/>
<feOffset dy="2"/>
<feGaussianBlur stdDeviation="2"/>
<feComposite in2="hardAlpha" operator="out"/>
<feColorMatrix type="matrix" values="0 0 0 0 0.670833 0 0 0 0 0.670833 0 0 0 0 0.670833 0 0 0 0.25 0"/>
<feBlend mode="normal" in2="effect1_backgroundBlur_3878_43529" result="effect2_dropShadow_3878_43529"/>
<feBlend mode="normal" in="SourceGraphic" in2="effect2_dropShadow_3878_43529" result="shape"/>
</filter>
</defs>
</svg>
