<svg width="58" height="58" viewBox="0 0 58 58" fill="none" xmlns="http://www.w3.org/2000/svg">
<g style="mix-blend-mode:difference">
<path fill-rule="evenodd" clip-rule="evenodd" d="M12.5205 37.3714C12.641 37.497 12.7841 37.5966 12.9416 37.6646C13.0992 37.7326 13.2681 37.7676 13.4387 37.7676C13.6092 37.7676 13.7781 37.7326 13.9357 37.6646C14.0932 37.5966 14.2363 37.497 14.3568 37.3714L29.0003 22.1415L43.6439 37.3714C43.7644 37.4968 43.9076 37.5962 44.0651 37.6641C44.2227 37.7319 44.3915 37.7669 44.562 37.7669C44.7325 37.7669 44.9014 37.7319 45.0589 37.6641C45.2164 37.5962 45.3596 37.4968 45.4802 37.3714C45.6007 37.246 45.6964 37.0972 45.7616 36.9334C45.8269 36.7696 45.8605 36.594 45.8605 36.4167C45.8605 36.2394 45.8269 36.0638 45.7616 35.9C45.6964 35.7362 45.6007 35.5873 45.4802 35.4619L29.9185 19.28C29.798 19.1544 29.6549 19.0548 29.4974 18.9868C29.3398 18.9189 29.1709 18.8839 29.0003 18.8839C28.8298 18.8839 28.6609 18.9189 28.5033 18.9868C28.3458 19.0548 28.2027 19.1544 28.0822 19.28L12.5205 35.4619C12.3997 35.5872 12.3039 35.736 12.2386 35.8998C12.1732 36.0637 12.1395 36.2393 12.1395 36.4167C12.1395 36.594 12.1732 36.7697 12.2386 36.9335C12.3039 37.0973 12.3997 37.2461 12.5205 37.3714Z" fill="#4F5052"/>
</g>
</svg>
